<?xml version="1.0" encoding="UTF-8"?>
<!-- Generated by Pixelmator Pro 3.8 -->
<svg width="512" height="512" viewBox="0 0 512 512" xmlns="http://www.w3.org/2000/svg">
    <path id="Path" fill="#ffffff" stroke="none" d="M 500 256 C 500 390.757477 390.757477 500 256 500 C 121.242523 500 12 390.757477 12 256 C 12 121.242523 121.242523 12 256 12 C 390.757477 12 500 121.242523 500 256 Z"/>
    <path id="path1" fill="none" stroke="#d5d5d5" stroke-width="3" d="M 490 256 C 490 385.234619 385.234619 490 256 490 C 126.765366 490 22 385.234619 22 256 C 22 126.765381 126.765366 22 256 22 C 385.234619 22 490 126.765381 490 256 Z"/>
    <g id="Group">
        <path id="path2" fill="#256b0f" stroke="none" d="M 256 57 L 256 57 C 265.090332 57 272.459473 64.36911 272.459473 73.459473 L 272.459473 446.540527 C 272.459473 455.630829 265.090332 463 256 463 L 256 463 C 246.909698 463 239.540543 455.630829 239.540543 446.540527 L 239.540543 73.459473 C 239.540543 64.36911 246.909698 57 256 57 Z"/>
        <path id="path3" fill="#2b7a15" stroke="none" d="M 309.960297 58.617493 L 309.960297 58.617493 C 318.740814 60.970276 323.951599 69.995575 321.598907 78.776154 L 222.198364 449.743896 C 219.845627 458.524445 210.820282 463.735229 202.039734 461.382507 L 202.039734 461.382507 C 193.259155 459.029755 188.048386 450.004395 190.401138 441.223816 L 289.801636 70.256104 C 292.154419 61.475525 301.179718 56.264801 309.960297 58.617493 Z"/>
        <path id="path4" fill="#33861a" stroke="none" d="M 356.128387 86.572571 L 356.128387 86.572571 C 364.000793 91.117737 366.69809 101.184143 362.152985 109.05658 L 178.355667 427.402832 C 173.810532 435.275269 163.744049 437.972595 155.871628 433.427429 L 155.871628 433.427429 C 147.999191 428.882294 145.30188 418.815796 149.847046 410.94339 L 333.644287 92.597107 C 338.189484 84.724701 348.255951 82.027405 356.128387 86.572571 Z"/>
        <path id="path5" fill="#3b9320" stroke="none" d="M 401.482483 114.517517 L 401.482483 114.517517 C 407.910278 120.945404 407.910278 131.366943 401.482483 137.794739 L 133.794739 405.482422 C 127.366943 411.910278 116.945374 411.910278 110.51757 405.482422 L 110.51757 405.482422 C 104.089722 399.054626 104.089722 388.633057 110.51757 382.205261 L 378.205261 114.517517 C 384.633057 108.089722 395.054596 108.089722 401.482483 114.517517 Z"/>
        <path id="path6" fill="#44a225" stroke="none" d="M 427.051697 161.243256 L 427.051697 161.243256 C 431.596863 169.115662 428.899597 179.182159 421.027161 183.727325 L 107.432343 364.781342 C 99.559875 369.326508 89.493431 366.629181 84.948257 358.756775 L 84.948257 358.756775 C 80.40313 350.884338 83.10041 340.817841 90.972878 336.272705 L 404.567688 155.218628 C 412.440125 150.673523 422.506531 153.370819 427.051697 161.243256 Z"/>
        <path id="path7" fill="#4cb12a" stroke="none" d="M 457.382507 206.039703 L 457.382507 206.039703 C 459.735199 214.820282 454.524475 223.845581 445.743896 226.198364 L 74.776169 325.598877 C 65.995621 327.951599 56.970245 322.740845 54.6175 313.960266 L 54.6175 313.960266 C 52.264755 305.179718 57.475559 296.154358 66.256104 293.801636 L 437.223846 194.401093 C 446.004425 192.048401 455.029724 197.259186 457.382507 206.039703 Z"/>
        <path id="path8" fill="#54bc2f" stroke="none" d="M 459 260 L 459 260 C 459 269.090302 451.63089 276.459473 442.540527 276.459473 L 69.459457 276.459473 C 60.36916 276.459473 53 269.090302 53 260 L 53 260 C 53 250.909698 60.36916 243.540527 69.459457 243.540527 L 442.540527 243.540527 C 451.63089 243.540527 459 250.909698 459 260 Z"/>
        <path id="path9" fill="#4cb12a" stroke="none" d="M 457.382507 313.960266 L 457.382507 313.960266 C 455.029724 322.740845 446.004425 327.951599 437.223846 325.598877 L 66.256104 226.198364 C 57.475559 223.845581 52.264755 214.820282 54.6175 206.039703 L 54.6175 206.039703 C 56.970245 197.259186 65.995621 192.048401 74.776169 194.401093 L 445.743896 293.801636 C 454.524475 296.154358 459.735199 305.179718 457.382507 313.960266 Z"/>
        <path id="path10" fill="#44a225" stroke="none" d="M 427.051697 358.756775 L 427.051697 358.756775 C 422.506531 366.629181 412.440125 369.326508 404.567688 364.781342 L 90.972878 183.727325 C 83.10041 179.182159 80.40313 169.115662 84.948257 161.243256 L 84.948257 161.243256 C 89.493431 153.370819 99.559875 150.673523 107.432343 155.218628 L 421.027161 336.272705 C 428.899597 340.817841 431.596863 350.884338 427.051697 358.756775 Z"/>
        <path id="path11" fill="#3b9320" stroke="none" d="M 401.482483 405.482422 L 401.482483 405.482422 C 395.054596 411.910278 384.633057 411.910278 378.205261 405.482422 L 110.51757 137.794739 C 104.089722 131.366943 104.089722 120.945404 110.51757 114.517517 L 110.51757 114.517517 C 116.945374 108.089722 127.366943 108.089722 133.794739 114.517517 L 401.482483 382.205261 C 407.910278 388.633057 407.910278 399.054626 401.482483 405.482422 Z"/>
        <path id="path12" fill="#33861a" stroke="none" d="M 356.128387 433.427429 L 356.128387 433.427429 C 348.255951 437.972595 338.189484 435.275269 333.644287 427.402832 L 149.847046 109.05658 C 145.30188 101.184143 147.999191 91.117737 155.871628 86.572571 L 155.871628 86.572571 C 163.744049 82.027405 173.810532 84.724701 178.355667 92.597107 L 362.152985 410.94339 C 366.69809 418.815796 364.000793 428.882294 356.128387 433.427429 Z"/>
        <path id="path13" fill="#2b7a15" stroke="none" d="M 309.960297 461.382507 L 309.960297 461.382507 C 301.179718 463.735229 292.154419 458.524445 289.801636 449.743896 L 190.401138 78.776154 C 188.048386 69.995575 193.259155 60.970276 202.039734 58.617493 L 202.039734 58.617493 C 210.820282 56.264801 219.845627 61.475525 222.198364 70.256104 L 321.598907 441.223816 C 323.951599 450.004395 318.740814 459.029755 309.960297 461.382507 Z"/>
    </g>
    <!-- 6 sesame seeds — classic teardrop: sharp point up, round base down.
         Arc-centres at r=98 (2/5 of plate radius 244) from SVG centre (256,256). -->
    <g id="sesame-seeds">
        <!-- 12 o'clock -->
        <path fill="#f5f0e6" stroke="#c4aa5a" stroke-width="1.5"
              d="M 0,-30 L 12,0 A 12,12 0 0,1 -12,0 Z"
              transform="translate(256,158)"/>
        <!-- 2 o'clock -->
        <path fill="#f5f0e6" stroke="#c4aa5a" stroke-width="1.5"
              d="M 0,-30 L 12,0 A 12,12 0 0,1 -12,0 Z"
              transform="translate(341,207)"/>
        <!-- 4 o'clock -->
        <path fill="#f5f0e6" stroke="#c4aa5a" stroke-width="1.5"
              d="M 0,-30 L 12,0 A 12,12 0 0,1 -12,0 Z"
              transform="translate(341,305)"/>
        <!-- 6 o'clock -->
        <path fill="#f5f0e6" stroke="#c4aa5a" stroke-width="1.5"
              d="M 0,-30 L 12,0 A 12,12 0 0,1 -12,0 Z"
              transform="translate(256,354)"/>
        <!-- 8 o'clock -->
        <path fill="#f5f0e6" stroke="#c4aa5a" stroke-width="1.5"
              d="M 0,-30 L 12,0 A 12,12 0 0,1 -12,0 Z"
              transform="translate(171,305)"/>
        <!-- 10 o'clock -->
        <path fill="#f5f0e6" stroke="#c4aa5a" stroke-width="1.5"
              d="M 0,-30 L 12,0 A 12,12 0 0,1 -12,0 Z"
              transform="translate(171,207)"/>
    </g>
</svg>
